<?xml version="1.0" standalone="no"?>
<!DOCTYPE svg PUBLIC "-//W3C//DTD SVG 20010904//EN"
 "http://www.w3.org/TR/2001/REC-SVG-20010904/DTD/svg10.dtd">
<svg version="1.0" xmlns="http://www.w3.org/2000/svg"
 width="300.000000pt" height="300.000000pt" viewBox="0 0 300.000000 300.000000"
 preserveAspectRatio="xMidYMid meet">
<metadata>
Created by potrace 1.11, written by Peter Selinger 2001-2013
</metadata>
<g transform="translate(0.000000,300.000000) scale(0.100000,-0.100000)"
fill="#000000" stroke="none">
<path d="M1370 2939 c0 -5 72 -44 160 -86 l160 -76 -100 -50 -100 -50 -158 66
c-197 83 -192 81 -192 69 0 -6 72 -41 161 -78 155 -66 160 -69 140 -85 -11 -9
-40 -20 -64 -23 -38 -6 -63 1 -197 54 -146 57 -196 72 -174 51 5 -6 76 -36
158 -68 81 -32 149 -62 149 -68 1 -11 -86 -56 -112 -58 -9 0 -87 25 -174 57
-165 60 -200 65 -205 30 -4 -29 7 -35 145 -85 68 -24 123 -46 123 -49 0 -3
-26 -18 -58 -32 l-58 -27 -199 65 c-212 68 -215 69 -215 55 0 -5 87 -38 194
-72 155 -49 195 -66 200 -82 4 -16 11 -19 43 -15 27 4 81 -9 192 -44 l153 -49
-6 -31 c-3 -17 -6 -45 -6 -63 l0 -33 -72 -12 c-185 -30 -318 -85 -410 -169
-106 -97 -143 -197 -135 -360 5 -121 22 -168 116 -342 124 -226 258 -401 372
-485 l50 -37 -58 -23 c-58 -23 -113 -71 -113 -98 0 -9 -26 -23 -63 -35 -34
-12 -79 -32 -98 -45 l-35 -24 -62 30 c-110 54 -250 50 -381 -13 -87 -40 -133
-79 -180 -150 -71 -106 -100 -255 -70 -362 11 -39 35 -53 26 -14 -25 105 -15
215 28 302 27 55 81 124 70 90 -3 -10 -10 -51 -15 -90 -5 -38 -16 -97 -24
-130 -9 -32 -16 -90 -16 -127 l0 -68 303 2 302 3 3 52 c2 28 -4 101 -13 163
-21 153 -21 150 23 108 100 -98 265 -137 571 -138 242 0 450 35 597 100 l42
18 6 -44 c3 -25 9 -94 12 -154 l7 -110 444 0 443 0 0 270 0 270 -39 25 c-53
36 -162 72 -237 80 -130 14 -286 -36 -388 -126 -31 -27 -47 -36 -50 -27 -27
84 -43 113 -79 139 -41 30 -122 59 -164 59 -15 0 -28 10 -38 30 -21 40 -80 69
-174 82 l-78 12 86 82 c222 211 371 515 371 756 0 152 -45 264 -142 353 -119
111 -300 165 -549 165 -70 0 -88 3 -93 16 -10 27 -7 72 6 76 9 3 8 9 -5 22
-18 19 -24 86 -7 86 5 0 39 -12 74 -26 70 -28 119 -29 124 -3 5 27 -23 45
-118 79 l-90 33 0 48 c0 26 4 50 9 53 5 3 84 -23 175 -59 168 -66 186 -71 186
-57 0 5 -69 34 -152 67 -84 32 -164 63 -177 70 l-25 13 42 21 c23 11 50 21 60
21 10 0 97 -33 193 -74 96 -41 176 -70 178 -65 4 13 21 5 -173 86 l-169 71 98
46 c54 25 101 46 106 46 4 0 61 -25 126 -56 205 -97 243 -113 243 -103 0 6
-81 49 -180 96 -99 48 -180 93 -180 100 0 13 -11 17 -41 14 -9 -1 -83 30 -165
69 -182 88 -194 92 -194 79z m360 -179 c0 -8 -319 -170 -335 -170 -3 0 -5 5
-5 11 0 9 311 167 333 168 4 1 7 -4 7 -9z m-375 -190 c0 -7 -6 -15 -12 -17 -8
-3 -13 4 -13 17 0 13 5 20 13 18 6 -3 12 -11 12 -18z m-45 -15 c0 -8 -4 -15
-9 -15 -5 0 -74 -31 -153 -69 -163 -78 -175 -83 -182 -72 -3 4 56 36 132 70
75 35 153 71 172 81 19 10 36 19 38 19 1 1 2 -6 2 -14z m74 -407 c-3 -5 -14
-8 -24 -8 -18 0 -19 6 -15 78 3 42 7 128 10 190 2 62 8 119 12 125 8 13 25
-372 17 -385z m-51 376 c9 -3 13 -13 10 -25 -6 -22 -5 -22 -37 -7 -24 10 -24
12 -8 24 20 16 17 15 35 8z m-73 -92 l75 -28 3 -46 3 -47 -73 25 c-40 13 -104
34 -143 46 l-70 21 60 28 c33 15 62 28 65 28 3 1 39 -12 80 -27z m180 -297
c-15 -18 -90 -30 -127 -20 -25 7 -26 8 -8 15 11 4 32 3 47 -2 19 -7 35 -6 55
5 37 20 48 20 33 2z m288 -26 c72 -13 174 -45 232 -74 68 -34 148 -119 183
-193 73 -156 33 -395 -104 -623 -66 -110 -75 -118 -39 -33 65 156 83 238 84
384 1 119 -2 141 -21 183 -45 97 -85 129 -219 177 -248 88 -582 78 -941 -26
-90 -26 -54 -25 52 1 356 89 653 89 900 2 33 -11 41 -19 43 -43 2 -16 17 -98
33 -182 16 -85 29 -186 29 -226 0 -84 -28 -202 -63 -273 -35 -66 -114 -178
-173 -240 -27 -29 -53 -59 -59 -66 -77 -109 -103 -127 -210 -146 -40 -7 -59
-6 -100 10 -71 27 -189 111 -193 138 -2 13 -11 21 -22 21 -40 0 -197 220 -295
415 -76 149 -96 213 -101 318 -10 225 108 364 377 440 134 38 149 40 149 17 0
-26 36 -40 102 -40 68 0 118 24 118 58 l0 25 90 -7 c50 -4 116 -11 148 -17z
m-298 -19 c0 -12 -28 -20 -70 -20 -40 0 -70 8 -70 19 0 3 32 7 70 7 39 1 70
-2 70 -6z m709 -1451 c90 -31 119 -71 101 -140 -32 -117 -220 -221 -475 -263
-430 -71 -829 -2 -911 156 -35 67 2 120 116 172 100 44 100 44 101 -11 1 -26
6 -77 13 -113 11 -64 11 -65 62 -92 86 -47 185 -61 369 -55 213 7 336 41 468
130 46 31 48 34 45 77 -1 25 -1 73 0 108 l2 62 28 -6 c15 -4 51 -15 81 -25z
m-1489 -83 c0 -26 -48 -64 -147 -115 -70 -36 -115 -67 -147 -101 -40 -43 -46
-46 -46 -26 0 44 32 131 58 159 15 16 41 36 57 45 84 44 225 68 225 38z m586
-76 c146 -47 364 -36 557 27 43 14 79 24 81 22 2 -2 6 -32 10 -67 l7 -63 -38
-16 c-75 -31 -170 -53 -280 -65 -133 -14 -244 -3 -376 38 l-85 27 -7 69 c-3
39 -9 77 -12 85 -4 10 7 7 34 -10 22 -14 71 -35 109 -47z"/>
<path d="M1414 1916 c-8 -22 3 -49 19 -43 6 2 12 14 12 27 0 27 -22 39 -31 16z"/>
<path d="M1630 1900 c0 -20 5 -30 15 -30 10 0 15 10 15 30 0 20 -5 30 -15 30
-10 0 -15 -10 -15 -30z"/>
<path d="M1170 1885 c0 -16 6 -25 15 -25 9 0 15 9 15 25 0 16 -6 25 -15 25 -9
0 -15 -9 -15 -25z"/>
<path d="M818 1873 c7 -3 16 -2 19 1 4 3 -2 6 -13 5 -11 0 -14 -3 -6 -6z"/>
<path d="M964 1866 c-8 -22 3 -49 19 -43 6 2 12 14 12 27 0 27 -22 39 -31 16z"/>
<path d="M1824 1866 c-8 -22 3 -49 19 -43 6 2 12 14 12 27 0 27 -22 39 -31 16z"/>
<path d="M784 1799 c-10 -17 13 -36 27 -22 12 12 4 33 -11 33 -5 0 -12 -5 -16
-11z"/>
<path d="M1115 1764 c-151 -22 -262 -69 -291 -126 -20 -38 -14 -100 14 -137
30 -41 84 -49 337 -50 445 -1 525 25 525 169 0 44 -4 56 -29 79 -55 52 -115
64 -331 67 -107 1 -208 0 -225 -2z m463 -39 c66 -23 102 -63 102 -113 0 -20
-5 -44 -10 -52 -7 -11 -10 -7 -10 18 0 50 -49 95 -135 122 -58 19 -102 24
-250 28 -122 4 -166 9 -135 13 25 4 122 6 215 4 133 -2 182 -6 223 -20z m-150
-25 c153 -20 212 -56 212 -129 0 -35 -4 -43 -30 -56 -42 -22 -197 -34 -421
-35 -274 0 -341 18 -347 94 -3 32 2 43 35 75 37 37 42 39 123 45 47 3 101 8
120 9 77 8 239 6 308 -3z"/>
<path d="M1130 1681 c-171 -9 -230 -32 -230 -90 1 -66 30 -75 264 -79 287 -5
426 18 426 72 0 30 -48 72 -98 85 -55 14 -210 19 -362 12z m5 -67 c0 -19 -6
-30 -17 -32 -21 -4 -34 34 -17 54 18 22 34 11 34 -22z m263 -3 c3 -27 0 -32
-15 -29 -19 3 -28 30 -19 54 10 26 31 10 34 -25z"/>
<path d="M1349 1210 c-78 -9 -153 -40 -168 -68 -6 -12 -11 -36 -11 -56 0 -49
28 -66 110 -66 92 0 279 35 310 58 45 34 39 91 -13 122 -35 22 -102 24 -228
10z"/>
<path d="M1400 775 c0 -16 6 -25 15 -25 9 0 15 9 15 25 0 16 -6 25 -15 25 -9
0 -15 -9 -15 -25z"/>
<path d="M1140 445 c0 -8 5 -15 10 -15 6 0 10 7 10 15 0 8 -4 15 -10 15 -5 0
-10 -7 -10 -15z"/>
<path d="M1820 445 c0 -8 7 -15 15 -15 8 0 15 7 15 15 0 8 -7 15 -15 15 -8 0
-15 -7 -15 -15z"/>
<path d="M1690 410 c0 -11 7 -20 15 -20 8 0 15 9 15 20 0 11 -7 20 -15 20 -8
0 -15 -9 -15 -20z"/>
<path d="M1240 405 c0 -8 7 -15 15 -15 8 0 15 7 15 15 0 8 -7 15 -15 15 -8 0
-15 -7 -15 -15z"/>
<path d="M1525 400 c-7 -12 2 -30 16 -30 5 0 9 9 9 20 0 21 -15 27 -25 10z"/>
<path d="M1365 390 c-7 -12 2 -30 16 -30 5 0 9 9 9 20 0 21 -15 27 -25 10z"/>
</g>
</svg>
